<?xml version="1.0" encoding="utf-8"?>
<!-- Generator: Adobe Illustrator 19.0.0, SVG Export Plug-In . SVG Version: 6.00 Build 0)  -->
<svg version="1.1" id="Layer_1" xmlns="http://www.w3.org/2000/svg" xmlns:xlink="http://www.w3.org/1999/xlink" x="0px" y="0px"
	 viewBox="0 0 500 500" style="enable-background:new 0 0 500 500;" xml:space="preserve">
<style type="text/css">
	.st0{fill:#EC9AB0;}
	.st1{fill:#00ADA9;}
</style>
<g id="XMLID_2926_">
	<g id="XMLID_2925_">
		<g id="XMLID_60_">
			<path id="XMLID_65_" class="st0" d="M248.9,10.9c-24.7,0-44.7,20.1-44.7,44.7s20.1,44.7,44.7,44.7s44.7-20.1,44.7-44.7
				S273.5,10.9,248.9,10.9z M248.9,85.3c-16.4,0-29.7-13.3-29.7-29.7S232.5,26,248.9,26s29.7,13.3,29.7,29.7S265.2,85.3,248.9,85.3z
				"/>
			<path id="XMLID_64_" class="st0" d="M121.4,171.7c-3.1-1.9-7.5-1.3-10,1.4c-7.1,7.4,6.3,23.2,11.5,28.5
				c11,11.4,26,16.3,41.5,11.7c0,0,16.9-2.7,11.7-29.7c-3-15.6-0.4-34.6,2.2-50.1c0.9-5.7,2.8-12.2,8.2-14.3
				c5.3-2.1,11,1.2,15.7,4.3c14,8.9,29.4,16.7,45.9,17.1c15.9,0.4,31.3-6.3,43.9-16.1c4.6-3.5,9.7-7.7,15.4-6.7
				c7.1,1.4,10,10,11,17.2c1.8,12.9,2.4,25.9,1.6,38.9c-0.7,11.3-2,23.7,4.7,32.7c7.6,10.3,23.3,11.7,34.8,6.2
				c11.5-5.5,19.6-16.3,26-27.4c2.1-3.6,4.1-8.3,1.8-11.8c-2.5-3.8-8.5-3.4-12.1-0.6s-5.5,7.2-7.9,11c-3.2,5.3-7.5,10-12.6,13.6
				c-3.5,2.5-7.8,4.6-11.9,3.3c-7.3-2.3-7.5-12.3-6.8-19.9c1.5-15.6,1-31.4-1.7-46.9c-1.9-11.3-5.9-23.6-16-28.9
				c-9.3-4.9-20.8-2.1-30.2,2.7c-9.4,4.8-17.8,11.4-27.8,14.6c-9.6,3.1-20.2,2.7-29.6-1c-8.6-3.4-15.9-9.5-24-13.9
				c-8.1-4.5-18-7.3-26.6-3.7c-10.7,4.5-15.3,17.1-17.4,28.6c-3,15.9-3.7,32.2-2,48.3c0.4,4,1,8.1-0.1,12c-1,3.9-4,7.6-8,8.1
				c-2.4,0.3-4.7-0.6-6.9-1.6C134.6,193.8,125.5,183.6,121.4,171.7z"/>
			<path id="XMLID_63_" class="st0" d="M199,163.6c0.2,3.9,1.1,7.8,1.8,11.7c1.9,10.6,2.3,21.6,0.2,32.3c-1.1,5.6-3,11.3-2.5,17.1
				c0.4,4.8,5,7.4,9.4,4.7c2.8-1.7,4.3-4.8,5.4-7.9c1.8-5.2,2.7-10.6,3.3-16.1c1.4-12.7,1.4-25.8-1.6-38.3
				c-1.1-4.7-3.2-9.8-7.7-11.4c-1.8-0.7-4-0.6-5.6,0.5C199.3,157.6,198.9,160.7,199,163.6z"/>
			<path id="XMLID_62_" class="st0" d="M299,163.6c-0.2,3.9-1.1,7.8-1.8,11.7c-1.9,10.6-2.3,21.6-0.2,32.3c1.1,5.6,3,11.3,2.5,17.1
				c-0.4,4.8-5,7.4-9.4,4.7c-2.8-1.7-4.3-4.8-5.4-7.9c-1.8-5.2-2.7-10.6-3.3-16.1c-1.4-12.7-1.4-25.8,1.6-38.3
				c1.1-4.7,3.2-9.8,7.7-11.4c1.8-0.7,4-0.6,5.6,0.5C298.6,157.6,299.1,160.7,299,163.6z"/>
			<path id="XMLID_61_" class="st0" d="M394.7,250.7c-6.4-13.3-20.9-19.5-36.1-20.3c-6.4-0.4-12.9,0.2-19,1.6
				c-24.7,5.7-45.9,20.7-68.1,33.1c-33.1,18.5-70,31.6-107.9,31.7c-15.7,0-32.3-2.8-42.3-15.7c-6.1-7.9-7.2-18.7-1.8-27
				c5.8-8.9,15.6-10.4,25.1-9.9c12.1,0.6,25.5,4.4,37.2,9.5c3.9,1.7,8.2-1.2,8.2-5.4l0-3.7c0-2.4-1.5-4.6-3.7-5.5
				c-8.5-3.3-18.5-6.9-26.9-8.6c-18.8-3.8-41.1-3.2-52.1,15c-3.4,5.7-5,12.4-4.7,19c0.9,21.1,17.2,36.3,35.7,42.7
				c13.9,4.8,29,5.2,43.7,3.8c50.4-4.9,96.6-29.2,140.6-54.3c9.4-5.4,19.1-10.9,29.9-12c13.9-1.4,30,6.5,28.7,23.3
				c-0.3,4.3-1.9,8.5-4.5,12c-7.3,10.1-25.9,15.6-37.9,16.7c-0.3,0-0.5,0-0.8,0.1l-0.1,1c-0.8,6.9,5.3,12.7,12.1,11.4
				c10.3-2,21.6-5.8,28.3-10.3C393.5,288.3,402.6,267.3,394.7,250.7z"/>
		</g>
	</g>
	<g id="XMLID_1418_">
		<g id="XMLID_713_">
			<path id="XMLID_1315_" class="st1" d="M160.4,478.5V493h-2.5v-14.5l-13.1-20.7h2.2c0.2,0,0.4,0.1,0.6,0.2
				c0.2,0.1,0.3,0.3,0.4,0.5l10.1,16.2c0.2,0.4,0.4,0.8,0.6,1.1c0.2,0.4,0.3,0.7,0.5,1.1c0.1-0.3,0.3-0.7,0.4-1.1
				c0.2-0.4,0.4-0.7,0.6-1.1l10.1-16.2c0.1-0.2,0.2-0.3,0.4-0.4c0.2-0.1,0.4-0.2,0.6-0.2h2.2L160.4,478.5z"/>
			<path id="XMLID_1318_" class="st1" d="M233.8,475.4c0,2.7-0.4,5.2-1.2,7.4c-0.8,2.2-2,4.1-3.4,5.7c-1.5,1.6-3.3,2.8-5.3,3.6
				c-2.1,0.9-4.4,1.3-6.8,1.3c-2.5,0-4.8-0.4-6.8-1.3c-2.1-0.9-3.8-2.1-5.3-3.6c-1.5-1.6-2.6-3.5-3.4-5.7c-0.8-2.2-1.2-4.7-1.2-7.4
				c0-2.7,0.4-5.2,1.2-7.4c0.8-2.2,2-4.1,3.4-5.7c1.5-1.6,3.2-2.8,5.3-3.7c2.1-0.9,4.3-1.3,6.8-1.3c2.5,0,4.8,0.4,6.8,1.3
				c2.1,0.9,3.8,2.1,5.3,3.7c1.5,1.6,2.6,3.5,3.4,5.7C233.4,470.2,233.8,472.7,233.8,475.4z M231.2,475.4c0-2.5-0.3-4.7-1-6.6
				c-0.7-2-1.6-3.6-2.9-5c-1.2-1.4-2.7-2.4-4.5-3.1c-1.7-0.7-3.7-1.1-5.8-1.1c-2.1,0-4,0.4-5.8,1.1c-1.7,0.7-3.2,1.8-4.5,3.1
				c-1.3,1.4-2.2,3-2.9,5s-1,4.2-1,6.6c0,2.5,0.3,4.7,1,6.6c0.7,2,1.7,3.6,2.9,5c1.3,1.4,2.8,2.4,4.5,3.1c1.7,0.7,3.7,1.1,5.8,1.1
				c2.1,0,4-0.4,5.8-1.1c1.7-0.7,3.2-1.8,4.5-3.1c1.2-1.4,2.2-3,2.9-5C230.9,480.1,231.2,477.9,231.2,475.4z"/>
			<path id="XMLID_1344_" class="st1" d="M295.1,477v12.5c-1.8,1.2-3.6,2.2-5.6,2.9c-2,0.7-4.2,1-6.7,1c-2.8,0-5.3-0.4-7.5-1.3
				c-2.2-0.9-4.1-2.1-5.7-3.6c-1.6-1.6-2.8-3.5-3.6-5.7c-0.8-2.2-1.3-4.7-1.3-7.4c0-2.7,0.4-5.2,1.2-7.4c0.8-2.2,2-4.1,3.5-5.7
				c1.5-1.6,3.4-2.8,5.6-3.6c2.2-0.9,4.6-1.3,7.4-1.3c1.3,0,2.6,0.1,3.7,0.3c1.1,0.2,2.2,0.5,3.2,0.8c1,0.4,1.9,0.8,2.7,1.3
				c0.8,0.5,1.7,1.1,2.4,1.8l-0.7,1.1c-0.2,0.4-0.6,0.5-1,0.3c-0.3-0.1-0.6-0.3-1.1-0.7c-0.5-0.4-1.1-0.7-1.9-1.1
				c-0.8-0.4-1.8-0.8-3-1.1c-1.2-0.3-2.7-0.5-4.4-0.5c-2.3,0-4.4,0.4-6.2,1.1c-1.9,0.7-3.4,1.8-4.7,3.1c-1.3,1.4-2.3,3-3,5
				c-0.7,2-1.1,4.2-1.1,6.6c0,2.5,0.4,4.7,1.1,6.7c0.7,2,1.7,3.7,3.1,5c1.3,1.4,3,2.4,4.9,3.2c1.9,0.7,4.1,1.1,6.5,1.1
				c1,0,2-0.1,2.9-0.2c0.9-0.1,1.7-0.3,2.5-0.6c0.8-0.2,1.6-0.5,2.3-0.9c0.8-0.4,1.5-0.8,2.3-1.2V479H286c-0.2,0-0.3-0.1-0.5-0.2
				c-0.1-0.1-0.2-0.2-0.2-0.4V477H295.1z"/>
			<path id="XMLID_1381_" class="st1" d="M355.2,493h-2c-0.2,0-0.4-0.1-0.6-0.2s-0.3-0.3-0.3-0.5l-4.1-10.3h-17.3l-4.1,10.3
				c-0.1,0.2-0.2,0.3-0.4,0.5c-0.2,0.1-0.4,0.2-0.6,0.2h-1.9l14.4-35.3h2.5L355.2,493z M347.4,480.2l-7.2-17.8
				c-0.3-0.6-0.5-1.3-0.7-2.1c-0.1,0.4-0.2,0.8-0.3,1.1c-0.1,0.4-0.2,0.7-0.4,1l-7.2,17.8H347.4z"/>
		</g>
		<g id="XMLID_1419_">
			<path id="XMLID_2923_" class="st1" d="M37.3,366.7v42.9H64v9.1H27.5v-52H37.3z"/>
			<path id="XMLID_1633_" class="st1" d="M122.6,408.8H95.5l-4.5,9.8H80.4l23.3-52h10.7l23.3,52H127L122.6,408.8z M109,377.6
				l-9.6,22.1h19.3L109,377.6z"/>
			<path id="XMLID_1623_" class="st1" d="M201.5,381l-16.9,22.6h-1.9l-16.6-22.6v37.8h-9.8v-52h11.3l16.3,22.3l16.3-22.3h11.2v52
				h-9.8V381z"/>
			<path id="XMLID_1621_" class="st1" d="M274.1,418.6h-38.9c0-17.3,0-34.7,0-52h38.9v9.5h-29.2v12h28.1v9.1h-28.1V409h29.2V418.6z"
				/>
			<path id="XMLID_1427_" class="st1" d="M313,375.6h-16.5v-8.9c15,0,27.7,0,42.8,0v8.9h-16.5v43.1H313V375.6z"/>
			<path id="XMLID_1424_" class="st1" d="M373.5,375.6H357v-8.9c15,0,27.7,0,42.8,0v8.9h-16.5v43.1h-9.8V375.6z"/>
			<path id="XMLID_1421_" class="st1" d="M457.5,408.8h-27.2l-4.5,9.8h-10.6l23.3-52h10.7l23.3,52h-10.7L457.5,408.8z M443.9,377.6
				l-9.6,22.1h19.3L443.9,377.6z"/>
		</g>
	</g>
</g>
</svg>
